<svg width="200" height="200" viewBox="0 0 200 200" fill="none" xmlns="http://www.w3.org/2000/svg">
<path fill-rule="evenodd" clip-rule="evenodd" d="M150 33.6056C150 40.5675 155.596 46.2113 162.5 46.2113C169.404 46.2113 175 40.5675 175 33.6056V21L175.646 21.0079C189.154 21.3531 200 32.5051 200 46.2113V174.789C200 188.713 188.807 200 175 200H25C11.1929 200 4.6309e-07 188.713 0 174.789V46.2113C0 32.5051 10.8457 21.3531 24.3545 21.0079L25 21V33.6056C25 40.5675 30.5964 46.2113 37.5 46.2113C44.4036 46.2113 50 40.5675 50 33.6056V21H150V33.6056ZM58.5234 57.3042C53.131 57.3042 48.7099 61.616 48.5293 67.0509L45.3467 162.854C45.1574 168.552 49.6867 173.276 55.3408 173.276H60.5254C66.0482 173.276 70.5254 168.761 70.5254 163.192V114.652L69.585 73.3695C69.5726 72.8262 70.0061 72.3788 70.5449 72.3788C70.9861 72.379 71.3705 72.6825 71.4766 73.1144L78.6162 102.21L85.8672 135.974C86.8635 140.614 90.9334 143.925 95.6406 143.925H104.029C108.711 143.924 112.767 140.647 113.788 136.039L121.287 102.21L128.531 73.0731C128.633 72.6653 128.996 72.3789 129.413 72.3788C129.922 72.3788 130.333 72.8009 130.322 73.3144L129.475 114.652V163.192C129.475 168.761 133.952 173.276 139.475 173.276H144.659C150.313 173.276 154.843 168.552 154.653 162.854L151.471 67.0509C151.29 61.616 146.869 57.3042 141.477 57.3042H118.806C113.99 57.3042 109.859 60.7649 108.976 65.5383L101.156 107.793L100.409 118.696C100.396 118.889 100.236 119.039 100.044 119.039C99.8553 119.039 99.6975 118.894 99.6797 118.704L98.6514 107.793L90.832 65.5383C89.9485 60.7649 85.8171 57.3043 81.002 57.3042H58.5234Z" fill="black"/>
<path d="M154 8.5C154 3.80558 157.806 0 162.5 0C167.194 0 171 3.80558 171 8.5V33.5C171 38.1944 167.194 42 162.5 42C157.806 42 154 38.1944 154 33.5V8.5Z" fill="black"/>
<path d="M29 8.5C29 3.80558 32.8056 0 37.5 0C42.1944 0 46 3.80558 46 8.5V33.5C46 38.1944 42.1944 42 37.5 42C32.8056 42 29 38.1944 29 33.5V8.5Z" fill="black"/>
</svg>
